<svg xmlns="http://www.w3.org/2000/svg" version="1.1" xmlns:xlink="http://www.w3.org/1999/xlink" xmlns:svgjs="http://svgjs.dev/svgjs" width="1000" height="1000" viewBox="0 0 1000 1000"><rect width="1000" height="1000" fill="#ffffff"></rect><g transform="matrix(0.7,0,0,0.7,149.5761646581417,398.14546391110787)"><svg viewBox="0 0 396 115" data-background-color="#c9efc7" preserveAspectRatio="xMidYMid meet" height="290" width="1000" xmlns="http://www.w3.org/2000/svg" xmlns:xlink="http://www.w3.org/1999/xlink"><g id="tight-bounds" transform="matrix(1,0,0,1,0.24023029232017734,0.20117598543120607)"><svg viewBox="0 0 395.52 114.59779862401581" height="114.59779862401581" width="395.52"><g><svg viewBox="0 0 395.52 114.59779862401581" height="114.59779862401581" width="395.52"><g transform="matrix(1,0,0,1,0,58.93705080919619)"><svg viewBox="0 0 395.52 55.660747814819615" height="55.660747814819615" width="395.52"><g><svg viewBox="0 0 395.52 55.660747814819615" height="55.660747814819615" width="395.52"><g><svg viewBox="0 0 395.52 55.660747814819615" height="55.660747814819615" width="395.52"><g transform="matrix(1,0,0,1,0,0)"><svg width="395.52" viewBox="3.688410758972168 -21.85457992553711 352.73297119140625 49.63941955566406" height="55.660747814819615" data-palette-color="#528265"><path d="M32.226-17.629l-0.747 4.913-10.924-1.661-4.581 30.124-6.04-0.918 4.58-30.124-10.826-1.646 0.747-4.914zM61.563 2.793l-0.242 1.955c-0.426 3.44-1.396 6.39-2.91 8.849-1.513 2.453-3.464 4.236-5.852 5.352-2.383 1.122-5.016 1.505-7.901 1.147v0c-2.852-0.353-5.306-1.366-7.363-3.037-2.058-1.666-3.535-3.864-4.433-6.595-0.892-2.724-1.139-5.77-0.742-9.141v0l0.245-1.975c0.425-3.434 1.409-6.389 2.952-8.864 1.542-2.469 3.504-4.265 5.886-5.387 2.388-1.115 5.015-1.495 7.88-1.141 2.871 0.356 5.327 1.358 7.366 3.008 2.046 1.651 3.511 3.841 4.396 6.571 0.89 2.737 1.13 5.823 0.718 9.258zM55.217 3.992l0.228-1.836c0.483-3.897 0.115-6.975-1.104-9.235-1.218-2.26-3.18-3.558-5.886-3.893v0c-2.64-0.327-4.832 0.453-6.577 2.339-1.744 1.88-2.867 4.71-3.369 8.49v0l-0.252 2.035c-0.479 3.864-0.094 6.944 1.153 9.241 1.241 2.29 3.198 3.6 5.871 3.932v0c2.706 0.335 4.914-0.436 6.625-2.313 1.718-1.883 2.822-4.803 3.311-8.76zM94.49 6.419l-1.251 13.522c-1.429 1.548-3.315 2.646-5.658 3.293-2.336 0.648-4.945 0.838-7.826 0.571v0c-2.954-0.273-5.508-1.186-7.66-2.737-2.153-1.552-3.735-3.633-4.745-6.244-1.004-2.61-1.375-5.584-1.113-8.92v0l0.255-2.759c0.493-5.331 2.156-9.378 4.99-12.142 2.826-2.758 6.526-3.925 11.1-3.502v0c3.923 0.363 6.95 1.621 9.081 3.773 2.131 2.152 3.263 5.076 3.396 8.77v0l-6.014-0.556c-0.284-4.311-2.55-6.663-6.799-7.057v0c-2.748-0.254-4.928 0.542-6.537 2.388-1.617 1.846-2.626 4.681-3.027 8.507v0l-0.251 2.709c-0.353 3.817 0.176 6.852 1.588 9.105 1.418 2.26 3.554 3.522 6.409 3.786v0c3.133 0.29 5.429-0.214 6.888-1.511v0l0.64-6.911-7.269-0.672 0.43-4.651zM121.927 5.648l-0.309 4.86-14.521-0.923-0.691 10.878 16.976 1.079-0.313 4.91-23.123-1.47 2.249-35.369 22.953 1.46-0.315 4.96-16.806-1.069-0.621 9.761zM155.776-7.878l-0.174 4.967-11.043-0.387-1.065 30.452-6.107-0.214 1.066-30.451-10.944-0.383 0.174-4.967zM187.94-7.654l-0.257 35.439-6.14-0.045 0.114-15.749-15.839-0.115-0.115 15.749-6.159-0.044 0.257-35.439 6.159 0.044-0.107 14.75 15.84 0.115 0.107-14.75zM215.581 6.449l0.111 4.869-14.546 0.333 0.25 10.897 17.005-0.389 0.113 4.918-23.164 0.531-0.811-35.431 22.994-0.526 0.113 4.968-16.835 0.386 0.224 9.777zM243.986 25.773l-7.788-13.275-6.851 0.345 0.687 13.633-6.152 0.31-1.784-35.395 12.445-0.627c4.088-0.206 7.287 0.551 9.596 2.27 2.316 1.719 3.562 4.313 3.736 7.782v0c0.119 2.37-0.353 4.38-1.418 6.029-1.065 1.656-2.594 2.964-4.589 3.926v0l8.694 14.35 0.016 0.32zM228.501-3.955l0.597 11.865 6.322-0.319c2.071-0.104 3.666-0.709 4.785-1.813 1.113-1.104 1.623-2.565 1.532-4.383v0c-0.096-1.898-0.709-3.339-1.84-4.322-1.131-0.978-2.765-1.429-4.905-1.355v0zM275.377 23.447l-8.162-13.048-6.839 0.541 1.075 13.607-6.141 0.485-2.791-35.33 12.422-0.981c4.081-0.322 7.3 0.343 9.657 1.996 2.364 1.652 3.683 4.21 3.956 7.672v0c0.187 2.366-0.229 4.388-1.246 6.067-1.017 1.685-2.509 3.037-4.475 4.055v0l9.099 14.098 0.025 0.319zM259.051-5.828l0.936 11.843 6.31-0.499c2.067-0.163 3.644-0.813 4.732-1.948 1.081-1.135 1.549-2.61 1.406-4.425v0c-0.15-1.894-0.804-3.317-1.963-4.268-1.158-0.945-2.805-1.35-4.941-1.215v0zM289.561-13.475l3.463 35.27-6.1 0.599-3.464-35.27zM310.959 19.672l-10.127 1.222-4.244-35.185 10.394-1.254c3.104-0.374 5.945-0.012 8.522 1.087 2.576 1.093 4.68 2.833 6.311 5.222 1.624 2.383 2.634 5.219 3.03 8.508v0l0.212 1.758c0.402 3.336 0.094 6.348-0.924 9.035-1.025 2.689-2.683 4.866-4.974 6.533-2.297 1.667-5.03 2.692-8.2 3.074zM307.577-10.611l-4.279 0.517 3.06 25.366 3.992-0.482c3.203-0.386 5.541-1.686 7.013-3.898 1.472-2.212 1.999-5.197 1.579-8.953v0l-0.236-1.956c-0.461-3.819-1.643-6.634-3.547-8.446-1.897-1.812-4.425-2.528-7.582-2.148zM350.93-6.772l0.72 4.816-14.39 2.151 1.611 10.781 16.823-2.515 0.727 4.866-22.915 3.425-5.239-35.05 22.747-3.401 0.735 4.916-16.655 2.489 1.446 9.673z" opacity="1" transform="matrix(1,0,0,1,0,0)" fill="#000000" class="undefined-text-0" data-fill-palette-color="primary" id="text-0"></path></svg></g></svg></g></svg></g></svg></g><g transform="matrix(1,0,0,1,142.23650678625438,0)"><svg viewBox="0 0 111.04698642749125 55.660747814819615" height="55.660747814819615" width="111.04698642749125"><g><svg xmlns="http://www.w3.org/2000/svg" xmlns:xlink="http://www.w3.org/1999/xlink" xml:space="preserve" style="shape-rendering:geometricPrecision;text-rendering:geometricPrecision;image-rendering:optimizeQuality;" viewBox="0.0000020265579223632812 0.0000027120113372802734 14.727499008178711 7.38195276260376" x="0" y="0" fill-rule="evenodd" clip-rule="evenodd" width="111.04698642749125" height="55.660747814819615" class="icon-icon-0" data-fill-palette-color="accent" id="icon-0"><g fill="#398378" data-fill-palette-color="accent"><path class="" d="M1.757 3.091c-0.313 0.444-0.296 1.331-0.417 1.95-0.153 0.784-0.711 1.203-1.34 1.534 0.188-0.771 0.348-1.542 0.412-2.313 0.078-0.953-0.06-0.891 0.767-1.575 1.159-0.961 3.04-1.741 5.848-2.29 2.456-0.406 5.049-0.453 7.701-0.351-0.89 1.809-3.733 1.961-7.203 1.581-1.811 0.02-3.495-0.488-5.768 1.464z m8.33 2.781c-3.895 2.038-7.803-2.284-9.165 0.688 2.104-1.831 5.079 3.183 9.165-0.688z m2.489-2.547c-4.49 2.72-9.502-0.792-10.907 1.859 3.412-1.235 7.765 2.753 10.907-1.859z m0.834-1.478c-3.944 1.761-10.043-1.402-11.565 2.239 3.106-1.808 8.446 1.438 11.565-2.239z" fill="#000000" data-fill-palette-color="accent"></path></g></svg></g></svg></g><g></g></svg></g><defs></defs></svg><rect width="395.52" height="114.59779862401581" fill="none" stroke="none" visibility="hidden"></rect></g></svg></g></svg>